<svg width="16" height="16" viewBox="0 0 16 16" fill="none" xmlns="http://www.w3.org/2000/svg">
<path d="M9.75746 9.13467e-07C9.83272 -0.000133498 9.90727 0.0145668 9.97684 0.0432615C10.0464 0.0719563 10.1097 0.114083 10.1629 0.167232L15.8328 5.83706C15.9401 5.94446 16.0005 6.0901 16.0005 6.24197C16.0005 6.39383 15.9401 6.53947 15.8328 6.64687C15.283 7.19667 14.6049 7.32038 14.1112 7.32038C13.9085 7.32038 13.7275 7.29976 13.5843 7.27571L9.99456 10.8655C10.0891 11.2462 10.1504 11.6344 10.1778 12.0258C10.2305 12.8298 10.1412 13.9581 9.35313 14.7461C9.24573 14.8535 9.10009 14.9138 8.94822 14.9138C8.79636 14.9138 8.65072 14.8535 8.54332 14.7461L5.30292 11.5069L1.6582 15.1516C1.43484 15.375 0.261933 16.1848 0.0385758 15.9614C-0.184781 15.7381 0.625031 14.564 0.848387 14.3418L4.49311 10.6971L1.25387 7.45668C1.1465 7.34928 1.08618 7.20364 1.08618 7.05178C1.08618 6.89992 1.1465 6.75427 1.25387 6.64687C2.04191 5.85882 3.17015 5.76833 3.97424 5.82217C4.36558 5.84959 4.7538 5.91091 5.13455 6.00544L8.72429 2.41684C8.69433 2.24241 8.679 2.06578 8.67848 1.8888C8.67848 1.39627 8.80218 0.718179 9.35313 0.167232C9.46046 0.060171 9.60586 3.31215e-05 9.75746 9.13467e-07Z" fill="#686868"/>
</svg>
